# xmcd
#
# Track frame offsets:
#	150
#	23972
#	36439
#	50305
#	77387
#	91154
#	108671
#	125241
#	138847
#	158737
#
# Disc length: 2366 seconds
#
# Revision: 0
# Processed by: cddbd v1.5.2PL0 Copyright (c) Steve Scherf et al.
# Submitted via: audiograbber 1.83.01
#
DISCID=7b093c0a
DTITLE=Stevie Ray Vaughan - Soul to Soul
DYEAR=1985
DGENRE=Blues
TTITLE0=Say What
TTITLE1=Looking Out The Window
TTITLE2=Look At Little Sister
TTITLE3=Ain't Gone "N" Give Up On Love
TTITLE4=Gone Home
TTITLE5=Change It
TTITLE6=You'll Be Mine
TTITLE7=Empty Arms
TTITLE8=Come On (Part 111)
TTITLE9=Life Without You
EXTD=
EXTT0=
EXTT1=
EXTT2=
EXTT3=
EXTT4=
EXTT5=
EXTT6=
EXTT7=
EXTT8=
EXTT9=
PLAYORDER=
